/* XPM */
static char *pencil[]={
"16 16 6 1",
". c None",
"d c #000000",
"b c #808000",
"c c #808080",
"a c #c0c000",
"# c #ffff00",
"...........##a..",
"..........##a##.",
".........##a###.",
"........##a#b##.",
".......##a#b##c.",
"......##a#b##c..",
".....##a#b##c...",
"....##a#b##c....",
"...##a####c.....",
"..##a####c......",
".##a####c.......",
"##a####c........",
"ba####c.........",
"bb###c..........",
"dbb#c...........",
".ccc............"};
