/* XPM */
static char * print_portrait_xpm[] = {
"18 22 2 1",
" 	c #FFFFFF",
".	c #000000",
"                  ",
" .......... ..... ",
" .......... ..... ",
" ..........       ",
" .......... ..... ",
" .......... ..... ",
" .......... ..... ",
" ..........       ",
" .......... ..... ",
" .......... ..... ",
" ..........       ",
" .......... ..... ",
" .......... ..... ",
" .......... ..... ",
"                  ",
" .......... ..... ",
" .......... ..... ",
" ..........       ",
" .......... ..... ",
" .......... ..... ",
" .......... ..... ",
"                  "};
