/* XPM */
static char * print_index_xpm[] = {
"17 20 2 1",
" 	c #FFFFFF",
".	c #000000",
"                 ",
" ... ... ... ... ",
" ... ... ... ... ",
"                 ",
"                 ",
" ... ... ... ... ",
" ... ... ... ... ",
"                 ",
"                 ",
" ... ... ... ... ",
" ... ... ... ... ",
"                 ",
"                 ",
" ... ... ... ... ",
" ... ... ... ... ",
"                 ",
"                 ",
" ... ... ... ... ",
" ... ... ... ... ",
"                 "};
